# Blender v2.73 (sub 0) OBJ File: 'untitled.blend'
# www.blender.org
mtllib untitled.mtl
o Cube
v 1.000000 -1.000000 -1.000000
v 1.000000 -1.000000 1.000000
v -1.000000 -1.000000 1.000000
v -1.000000 -1.000000 -1.000000
v 1.000000 1.000000 -0.999999
v 0.999999 1.000000 1.000001
v -1.000000 1.000000 1.000000
v -1.000000 1.000000 -1.000000
vt 0.000000 1.000000
vt 0.000000 0.000000
vt -1.000000 0.000000
vt -0.000000 -1.000000
vt 1.000000 -1.000000
vt 1.000000 0.000000
vt 1.000000 1.000000
vt -1.000000 1.000000
vn 0.000000 -1.000000 0.000000
vn 0.000000 1.000000 0.000000
vn 1.000000 0.000000 0.000000
vn -0.000000 0.000000 1.000000
vn -1.000000 -0.000000 -0.000000
vn 0.000000 0.000000 -1.000000
usemtl Material
s off
f 1/1/1 2/2/1 3/3/1
f 8/2/2 7/4/2 6/5/2
f 5/6/3 6/2/3 2/4/3
f 6/6/4 7/2/4 3/4/4
f 3/2/5 7/1/5 8/7/5
f 1/2/6 4/3/6 8/8/6
f 4/2/1 1/6/1 3/4/1
f 5/1/2 8/8/2 6/2/2
f 1/6/3 5/7/3 2/2/3
f 2/2/4 6/1/4 3/3/4
f 4/2/5 3/3/5 8/1/5
f 5/2/6 1/4/6 8/3/6
